<svg width="53" height="53" viewBox="0 0 53 53" fill="none" xmlns="http://www.w3.org/2000/svg">
<g clip-path="url(#clip0_7_5523)">
<path d="M40.28 46.375V1.32503C40.28 0.885871 39.9239 0.530029 39.485 0.530029H5.56502C5.12612 0.530029 4.77002 0.885871 4.77002 1.32503V46.375C4.77002 46.8142 5.12612 47.17 5.56502 47.17H39.485C39.9239 47.17 40.28 46.8142 40.28 46.375ZM38.69 45.58H6.36002V2.12003H38.69V45.58Z" fill="#48A601"/>
<path d="M45.315 6.36011H42.4C41.9611 6.36011 41.605 6.71595 41.605 7.15511C41.605 7.59427 41.9611 7.95011 42.4 7.95011H44.52V51.4101H12.19V48.7601C12.19 48.3209 11.8339 47.9651 11.395 47.9651C10.9561 47.9651 10.6 48.3209 10.6 48.7601V52.2051C10.6 52.6443 10.9561 53.0001 11.395 53.0001H45.315C45.7539 53.0001 46.11 52.6443 46.11 52.2051V7.15511C46.11 6.71595 45.7539 6.36011 45.315 6.36011Z" fill="#48A601"/>
<path d="M12.19 12.7201H32.33C32.7689 12.7201 33.125 12.3643 33.125 11.9251C33.125 11.486 32.7689 11.1301 32.33 11.1301H12.19C11.7511 11.1301 11.395 11.486 11.395 11.9251C11.395 12.3643 11.7511 12.7201 12.19 12.7201Z" fill="#48A601"/>
<path d="M12.19 20.6701H32.33C32.7689 20.6701 33.125 20.3142 33.125 19.8751C33.125 19.4359 32.7689 19.0801 32.33 19.0801H12.19C11.7511 19.0801 11.395 19.4359 11.395 19.8751C11.395 20.3142 11.7511 20.6701 12.19 20.6701Z" fill="#48A601"/>
<path d="M12.19 28.09H32.33C32.7689 28.09 33.125 27.7342 33.125 27.295C33.125 26.8558 32.7689 26.5 32.33 26.5H12.19C11.7511 26.5 11.395 26.8558 11.395 27.295C11.395 27.7342 11.7511 28.09 12.19 28.09Z" fill="#48A601"/>
<path d="M12.19 37.1H23.32C23.7589 37.1 24.115 36.7442 24.115 36.305C24.115 35.8659 23.7589 35.51 23.32 35.51H12.19C11.7511 35.51 11.395 35.8659 11.395 36.305C11.395 36.7442 11.7511 37.1 12.19 37.1Z" fill="#48A601"/>
</g>
<defs>
<clipPath id="clip0_7_5523">
<rect width="53" height="53" fill="white"/>
</clipPath>
</defs>
</svg>
