<svg width="53" height="53" viewBox="0 0 53 53" fill="none" xmlns="http://www.w3.org/2000/svg">
<path d="M9.91266 16.1814L2.16141 12.0491V38.6899L9.91266 42.4495L16.5873 45.6875L23.2041 48.9006V23.2784L16.5873 19.7424" stroke="#48A601" stroke-width="2" stroke-miterlimit="10" stroke-linecap="round" stroke-linejoin="round"/>
<path d="M28.7939 45.6875L23.2123 48.9006" stroke="#48A601" stroke-width="2" stroke-miterlimit="10" stroke-linecap="round" stroke-linejoin="round"/>
<path d="M2.16141 12.0574L22.3428 4.09912L42.5077 14.3513V23.8996" stroke="#48A601" stroke-width="2" stroke-miterlimit="10" stroke-linecap="round" stroke-linejoin="round"/>
<path d="M23.2123 23.2702L42.5159 14.3596" stroke="#48A601" stroke-width="2" stroke-miterlimit="10" stroke-linecap="round" stroke-linejoin="round"/>
<path d="M36.1228 11.1134C35.8827 10.9892 16.5873 19.7424 16.5873 19.7424V45.6876" stroke="#48A601" stroke-width="2" stroke-miterlimit="10" stroke-linecap="round" stroke-linejoin="round"/>
<path d="M29.1583 7.56885L9.90437 16.1813V42.4495" stroke="#48A601" stroke-width="2" stroke-miterlimit="10" stroke-linecap="round" stroke-linejoin="round"/>
<path d="M41.87 41.0583H33.3072C31.7337 41.0583 30.4087 39.874 30.2431 38.3006L29.1666 28.4045C29.1003 27.7917 29.5806 27.2534 30.2017 27.2534H46.1348L44.9423 38.3006C44.7684 39.8658 43.4434 41.0583 41.87 41.0583Z" stroke="#48A601" stroke-width="2" stroke-miterlimit="10" stroke-linecap="round" stroke-linejoin="round"/>
<path d="M46.1348 27.2535L46.4744 24.7029C46.6234 23.5683 47.5923 22.7236 48.7352 22.7236H50.8469" stroke="#48A601" stroke-width="2" stroke-miterlimit="10" stroke-linecap="round" stroke-linejoin="round"/>
<path d="M34.9966 27.2451V32.0317V36.81V41.05" stroke="#48A601" stroke-width="2" stroke-miterlimit="10" stroke-linecap="round" stroke-linejoin="round"/>
<path d="M40.3877 27.2451V32.0317V36.81V41.05" stroke="#48A601" stroke-width="2" stroke-miterlimit="10" stroke-linecap="round" stroke-linejoin="round"/>
<path d="M45.6131 32.0317H40.3877H34.9966H29.5558" stroke="#48A601" stroke-width="2" stroke-miterlimit="10" stroke-linecap="round" stroke-linejoin="round"/>
<path d="M45.0997 36.8101H40.3877H34.9966H30.0692" stroke="#48A601" stroke-width="2" stroke-miterlimit="10" stroke-linecap="round" stroke-linejoin="round"/>
<path d="M36.3795 43.0293C36.3795 41.9361 35.4934 41.05 34.4003 41.05C33.3072 41.05 32.4211 41.9361 32.4211 43.0293C32.4211 44.1224 33.3072 45.0085 34.4003 45.0085C35.4934 45.0002 36.3795 44.1224 36.3795 43.0293Z" stroke="#48A601" stroke-width="2" stroke-miterlimit="10" stroke-linecap="round" stroke-linejoin="round"/>
<path d="M43.9817 43.0293C43.9817 41.9361 43.0956 41.05 42.0025 41.05C40.9094 41.05 40.0233 41.9361 40.0233 43.0293C40.0233 44.1224 40.9094 45.0085 42.0025 45.0085C43.0956 45.0002 43.9817 44.1224 43.9817 43.0293Z" stroke="#48A601" stroke-width="2" stroke-miterlimit="10" stroke-linecap="round" stroke-linejoin="round"/>
</svg>
