<svg width="53" height="53" viewBox="0 0 53 53" fill="none" xmlns="http://www.w3.org/2000/svg">
<path d="M15.105 46.077L7.46141 38.9303C6.39313 37.9282 6.33516 36.2554 7.33719 35.1789L25.5311 15.7262C27.0217 14.1362 29.5144 14.0534 31.1044 15.5357L36.8598 20.9185C38.4498 22.4092 38.5327 24.9018 37.0503 26.4918L18.8564 45.9528C17.8544 47.0211 16.1816 47.079 15.105 46.077Z" stroke="#48A601" stroke-width="2" stroke-miterlimit="10" stroke-linecap="round" stroke-linejoin="round"/>
<path d="M31.0733 24.3181C31.7311 23.0776 31.2588 21.5387 30.0182 20.8809C28.7777 20.2231 27.2388 20.6954 26.581 21.936C25.9232 23.1765 26.3955 24.7154 27.6361 25.3732C28.8766 26.031 30.4155 25.5587 31.0733 24.3181Z" stroke="#48A601" stroke-width="2" stroke-miterlimit="10" stroke-linecap="round" stroke-linejoin="round"/>
<path d="M28.827 23.1297C28.827 23.1297 47.965 15.1548 46.2756 7.61887C45.3233 3.36231 34.9551 9.57325 31.1126 15.5357" stroke="#48A601" stroke-width="2" stroke-miterlimit="10" stroke-linecap="round" stroke-linejoin="round"/>
<path d="M15.7758 32.9596C15.9331 33.4813 15.6433 34.0362 15.1133 34.1935C14.5916 34.3509 14.0367 34.061 13.8794 33.531C13.722 33.0093 14.0119 32.4544 14.5419 32.2971C15.0636 32.148 15.6185 32.4379 15.7758 32.9596Z" stroke="#48A601" stroke-width="2" stroke-miterlimit="10" stroke-linecap="round" stroke-linejoin="round"/>
<path d="M22.7155 35.3693C22.8728 35.8911 22.583 36.4459 22.053 36.6032C21.5312 36.7606 20.9764 36.4708 20.8191 35.9408C20.6617 35.419 20.9516 34.8642 21.4816 34.7068C22.0033 34.5495 22.5581 34.8476 22.7155 35.3693Z" stroke="#48A601" stroke-width="2" stroke-miterlimit="10" stroke-linecap="round" stroke-linejoin="round"/>
<path d="M18.2519 30.384V38.9468" stroke="#48A601" stroke-width="2" stroke-miterlimit="10" stroke-linecap="round" stroke-linejoin="round"/>
<path d="M40.2137 29.7795L30.9222 39.6094" stroke="#48A601" stroke-width="2" stroke-miterlimit="10" stroke-linecap="round" stroke-linejoin="round"/>
<path d="M19.5603 16.4468L14.9145 21.3658" stroke="#48A601" stroke-width="2" stroke-miterlimit="10" stroke-linecap="round" stroke-linejoin="round"/>
</svg>
