<svg width="53" height="53" viewBox="0 0 53 53" fill="none" xmlns="http://www.w3.org/2000/svg">
<path d="M8.85269 39.3359H4.25659V27.4523L10.0121 19.9661H19.9164V33.6136V39.3359H16.1899" stroke="#48A601" stroke-width="2" stroke-miterlimit="10" stroke-linecap="round" stroke-linejoin="round"/>
<path d="M19.9164 33.6135H48.7435V39.3359H44.1888" stroke="#48A601" stroke-width="2" stroke-miterlimit="10" stroke-linecap="round" stroke-linejoin="round"/>
<path d="M36.8516 39.3359H19.9164" stroke="#48A601" stroke-width="2" stroke-miterlimit="10" stroke-linecap="round" stroke-linejoin="round"/>
<path d="M12.5213 44.0398C14.6114 44.0398 16.3058 42.3454 16.3058 40.2552C16.3058 38.1651 14.6114 36.4707 12.5213 36.4707C10.4311 36.4707 8.73676 38.1651 8.73676 40.2552C8.73676 42.3454 10.4311 44.0398 12.5213 44.0398Z" stroke="#48A601" stroke-width="2" stroke-miterlimit="10" stroke-linecap="round" stroke-linejoin="round"/>
<path d="M40.5202 44.0398C42.6103 44.0398 44.3047 42.3454 44.3047 40.2552C44.3047 38.1651 42.6103 36.4707 40.5202 36.4707C38.43 36.4707 36.7357 38.1651 36.7357 40.2552C36.7357 42.3454 38.43 44.0398 40.5202 44.0398Z" stroke="#48A601" stroke-width="2" stroke-miterlimit="10" stroke-linecap="round" stroke-linejoin="round"/>
<path d="M46.6152 14.2852H22.5913V19.2208H46.6152V14.2852Z" stroke="#48A601" stroke-width="2" stroke-miterlimit="10" stroke-linecap="round" stroke-linejoin="round"/>
<path d="M44.6691 19.2207H24.5374V33.6052H44.6691V19.2207Z" stroke="#48A601" stroke-width="2" stroke-miterlimit="10" stroke-linecap="round" stroke-linejoin="round"/>
<path d="M4.25659 27.908H19.9164" stroke="#48A601" stroke-width="2" stroke-miterlimit="10" stroke-linecap="round" stroke-linejoin="round"/>
<path d="M31.7752 14.2852V33.6136" stroke="#48A601" stroke-width="2" stroke-miterlimit="10" stroke-linecap="round" stroke-linejoin="round"/>
<path d="M37.7543 14.2852V33.6136" stroke="#48A601" stroke-width="2" stroke-miterlimit="10" stroke-linecap="round" stroke-linejoin="round"/>
<path d="M34.8972 14.2852C34.8972 14.2852 33.3155 7.90035 30.0775 9.11769C26.8395 10.335 30.0361 14.2852 34.8972 14.2852Z" stroke="#48A601" stroke-width="2" stroke-miterlimit="10" stroke-linecap="round" stroke-linejoin="round"/>
<path d="M34.6902 14.2852C34.6902 14.2852 36.2719 7.90035 39.5099 9.11769C42.7478 10.335 39.5513 14.2852 34.6902 14.2852Z" stroke="#48A601" stroke-width="2" stroke-miterlimit="10" stroke-linecap="round" stroke-linejoin="round"/>
</svg>
