<svg width="53" height="53" viewBox="0 0 53 53" fill="none" xmlns="http://www.w3.org/2000/svg">
<path d="M30.7296 9.52954C30.5188 9.5296 30.3127 9.59254 30.1378 9.71032C29.9629 9.8281 29.8271 9.99537 29.7477 10.1907C29.6684 10.3861 29.6491 10.6007 29.6924 10.8071C29.7356 11.0135 29.8394 11.2023 29.9905 11.3493C30.5205 11.8793 31.1727 12.409 32.1561 12.5729C32.9698 12.7085 34.4117 12.695 36.247 12.695C36.2659 12.7743 36.275 12.8204 36.2967 12.9104C36.4427 13.5163 36.6504 14.3592 36.8992 15.3616C37.0277 15.8794 37.2213 16.6498 37.3691 17.2415L25.6905 23.5311L17.6142 14.8254C20.0842 14.7506 21.2 14.0011 21.2 13.2996C21.2 12.6668 20.67 12.7199 19.7425 12.7199H12.72C12.1349 12.7199 11.66 13.1948 11.66 13.7799V14.2499C11.66 15.5515 12.0575 15.8999 12.72 15.8999C13.3317 15.8999 14.1762 15.5484 15.1133 15.2477L23.761 24.5683L19.3326 26.9533C17.43 24.1371 14.2465 22.2599 10.6 22.2599C4.75516 22.2599 0 27.0151 0 32.8599C0 38.7047 4.75516 43.4599 10.6 43.4599C13.9772 43.4599 15.6768 42.6696 17.6618 41.6504C18.8674 43.4057 21.2527 43.9842 23.1295 42.9092L24.9059 41.8927C25.0274 41.8233 25.134 41.7306 25.2195 41.6199C25.305 41.5091 25.3678 41.3826 25.4042 41.2475C25.4406 41.1124 25.4498 40.9714 25.4315 40.8327C25.4131 40.694 25.3674 40.5603 25.2971 40.4393L25.1025 40.1039L26.9969 39.0957C27.2106 38.9855 27.3806 38.806 27.4788 38.5866C27.5771 38.3671 27.5979 38.1208 27.5377 37.888C27.4775 37.6552 27.34 37.4497 27.1476 37.3054C26.9553 37.1611 26.7196 37.0864 26.4793 37.0937C26.3125 37.0991 26.1494 37.1438 26.0031 37.2241L24.0343 38.2696L22.7093 35.9923L24.8727 34.8598C25.0879 34.7512 25.2597 34.5726 25.3597 34.3533C25.4597 34.134 25.482 33.8872 25.4229 33.6535C25.3638 33.4198 25.2269 33.2133 25.0347 33.0679C24.8425 32.9225 24.6064 32.8469 24.3655 32.8537C24.1984 32.8575 24.0345 32.9008 23.8873 32.98L21.641 34.1559L21.1938 33.3878C21.0954 33.2184 20.952 33.0796 20.7795 32.9868C20.607 32.894 20.4122 32.8508 20.2166 32.862C20.0527 32.8715 19.8932 32.919 19.7508 33.0007L17.9724 34.0172C16.0052 35.1445 15.3171 37.6852 16.4569 39.6422L16.5646 39.8286C14.785 40.738 13.4097 41.3399 10.6 41.3399C5.92434 41.3399 2.12 37.5356 2.12 32.8599C2.12 28.1842 5.92434 24.3799 10.6 24.3799C13.4413 24.3799 15.9472 25.7953 17.4838 27.9491L9.04312 32.4934C8.92051 32.5595 8.81211 32.6491 8.7241 32.757C8.6361 32.865 8.57023 32.9892 8.53024 33.1227C8.49025 33.2561 8.47694 33.3961 8.49105 33.5346C8.50517 33.6732 8.54643 33.8076 8.6125 33.9302C8.67857 34.0529 8.76814 34.1613 8.8761 34.2493C8.98406 34.3373 9.10829 34.4031 9.24171 34.4431C9.37513 34.4831 9.51512 34.4964 9.65369 34.4823C9.79225 34.4682 9.92668 34.4269 10.0493 34.3609L37.9012 19.3635C38.1847 20.493 38.4249 21.4547 38.7231 22.6388C38.7572 22.7739 38.7574 22.7729 38.7914 22.9079C34.7225 24.3901 31.8 28.2869 31.8 32.8599C31.8 38.7016 36.5583 43.4599 42.4 43.4599C48.2417 43.4599 53 38.7016 53 32.8599C53 27.0182 48.2417 22.2599 42.4 22.2599C41.8703 22.2599 41.3544 22.3127 40.8452 22.3883C40.8114 22.2542 40.8107 22.2553 40.7769 22.1212C40.1145 19.4917 39.4534 16.8503 38.9571 14.8502C38.7089 13.8502 38.5026 13.0104 38.3587 12.4135C38.2868 12.115 38.2301 11.878 38.1931 11.7158C38.1746 11.6347 38.1611 11.5711 38.1538 11.5357C38.1504 11.5194 38.1474 11.5112 38.1476 11.5129V11.5108C38.1117 11.2584 37.986 11.0273 37.7936 10.86C37.6012 10.6927 37.355 10.6004 37.1 10.5999C34.45 10.5999 33.1105 10.583 32.5039 10.4819C31.8973 10.3808 32.0195 10.3804 31.4895 9.85044C31.3907 9.7489 31.2725 9.66818 31.142 9.61307C31.0115 9.55795 30.8713 9.52955 30.7296 9.52954ZM42.4 24.3799C47.0959 24.3799 50.88 28.164 50.88 32.8599C50.88 37.5558 47.0959 41.3399 42.4 41.3399C37.7041 41.3399 33.92 37.5558 33.92 32.8599C33.92 29.2562 36.1522 26.1974 39.3111 24.9658C40.2912 28.8465 41.3731 33.1208 41.3731 33.1208C41.4034 33.2597 41.4614 33.3912 41.5436 33.5073C41.6258 33.6234 41.7305 33.7218 41.8515 33.7966C41.9725 33.8714 42.1073 33.9211 42.2479 33.9427C42.3885 33.9643 42.532 33.9574 42.6699 33.9224C42.8078 33.8873 42.9372 33.8249 43.0504 33.7388C43.1637 33.6528 43.2585 33.5447 43.3291 33.4213C43.3997 33.2978 43.4448 33.1614 43.4616 33.0201C43.4784 32.8788 43.4666 32.7356 43.4269 32.599C43.4269 32.599 42.3447 28.3268 41.3648 24.4482C41.7046 24.4071 42.0488 24.3799 42.4 24.3799ZM19.8916 35.3629L22.9266 40.5842L22.0757 41.0708C21.0999 41.6297 19.8769 41.3015 19.316 40.3379L18.2891 38.576C17.7287 37.6138 18.0507 36.4179 19.0282 35.8577L19.8916 35.3629Z" fill="#48A601"/>
</svg>
