<svg width="53" height="53" viewBox="0 0 53 53" fill="none" xmlns="http://www.w3.org/2000/svg">
<path d="M8.99343 6.6001L2.32703 14.6992H11.1714L15.6847 6.6001H8.99343Z" stroke="#48A601" stroke-width="2" stroke-miterlimit="10" stroke-linecap="round" stroke-linejoin="round"/>
<path d="M15.6847 6.6001L11.1714 14.6992H21.4816L24.115 6.6001H15.6847Z" stroke="#48A601" stroke-width="2" stroke-miterlimit="10" stroke-linecap="round" stroke-linejoin="round"/>
<path d="M43.9569 6.6001L50.6233 14.6992H41.7789L37.2739 6.6001H43.9569Z" stroke="#48A601" stroke-width="2" stroke-miterlimit="10" stroke-linecap="round" stroke-linejoin="round"/>
<path d="M37.2739 6.6001L41.7789 14.6992H31.6427L28.8436 6.6001H37.2739Z" stroke="#48A601" stroke-width="2" stroke-miterlimit="10" stroke-linecap="round" stroke-linejoin="round"/>
<path d="M24.115 6.6001H28.8436" stroke="#48A601" stroke-width="2" stroke-miterlimit="10" stroke-linecap="round" stroke-linejoin="round"/>
<path d="M21.4816 14.6992H31.6427" stroke="#48A601" stroke-width="2" stroke-miterlimit="10" stroke-linecap="round" stroke-linejoin="round"/>
<path d="M11.1714 14.6992C11.1714 14.6992 11.3867 19.6514 6.50078 19.6514C2.04547 19.6514 2.32703 14.6992 2.32703 14.6992" stroke="#48A601" stroke-width="2" stroke-miterlimit="10" stroke-linecap="round" stroke-linejoin="round"/>
<path d="M11.1714 14.6992C11.1714 14.6992 10.9395 19.6514 16.107 19.6514C21.7548 19.6514 21.4898 14.6992 21.4898 14.6992C21.4898 14.6992 21.2331 19.6514 26.5745 19.6514C31.8828 19.6514 31.6592 14.6992 31.6592 14.6992C31.6592 14.6992 32.2555 19.6514 37.4644 19.6514C42.5905 19.6514 41.7955 14.6992 41.7955 14.6992" stroke="#48A601" stroke-width="2" stroke-miterlimit="10" stroke-linecap="round" stroke-linejoin="round"/>
<path d="M50.6233 14.6992C50.6233 14.6992 51.3852 19.6514 46.905 19.6514C41.9942 19.6514 41.7872 14.6992 41.7872 14.6992" stroke="#48A601" stroke-width="2" stroke-miterlimit="10" stroke-linecap="round" stroke-linejoin="round"/>
<path d="M17.6391 42.9961H7.35376V19.6016" stroke="#48A601" stroke-width="2" stroke-miterlimit="10" stroke-linecap="round" stroke-linejoin="round"/>
<path d="M45.6462 19.5354V42.9962H35.3112" stroke="#48A601" stroke-width="2" stroke-miterlimit="10" stroke-linecap="round" stroke-linejoin="round"/>
<path d="M31.3528 28.769C31.3528 28.769 30.21 26.177 25.8706 26.177C21.5313 26.177 18.5914 32.3465 24.5953 33.9614C31.4356 35.7998 32.3549 37.0586 31.7834 39.7334C31.0381 43.2198 21.6555 43.8078 21.2497 38.9053" stroke="#48A601" stroke-width="2" stroke-miterlimit="10" stroke-linecap="round" stroke-linejoin="round"/>
<path d="M26.442 23.5767V46.3998" stroke="#48A601" stroke-width="2" stroke-miterlimit="10" stroke-linecap="round" stroke-linejoin="round"/>
<path d="M7.35376 46.3999H19.4775" stroke="#48A601" stroke-width="2" stroke-miterlimit="10" stroke-linecap="round" stroke-linejoin="round"/>
<path d="M33.4811 46.3999H45.6463" stroke="#48A601" stroke-width="2" stroke-miterlimit="10" stroke-linecap="round" stroke-linejoin="round"/>
</svg>
